<svg width="499" height="402" viewBox="0 0 499 402" fill="none" xmlns="http://www.w3.org/2000/svg">
<path d="M103 136C78.509 143.046 105.282 292.385 228.6 318.96C382.749 352.179 450.819 343.371 481.432 385.146M481.432 385.146L498 372.311V401H463.064L481.432 385.146Z" stroke="#696EFF" stroke-width="2" stroke-linecap="round" stroke-dasharray="30 10"/>
<path d="M103 136.5C105.5 133.833 111.4 129.3 115 132.5C119.5 136.5 122 138 120.5 143.5C119 149 116 152.5 109.5 151C104.3 149.8 94.3333 145.5 90 143.5C77.1667 134.667 48.3 112.9 35.5 96.4999C22.7 80.0999 15.1667 57.9999 13 48.9999L1 0.999939" stroke="#696EFF" stroke-width="2" stroke-linecap="round" stroke-dasharray="30 10"/>
</svg>
